:SAMPLES-PER-SECOND 30
:FULLY-SPECIFIED
:DEGREES
112
root  5.399466687 38.16133334 -0.3297133239 -3.173995972 -69.54699707 6.111999512
lowerback  14.45860004 2.479229927 0.6587409973
upperback  4.136509895 3.228830099 0.1394599974
thorax  -3.693880081 1.534070015 -0.7793620229
lowerneck  -3.151220083 7.422460079 -3.486330032
upperneck  3.935960054 10.22529984 -3.921809912
head  1.79242003 4.945670128 -0.3936130106
lclavicle  0 -9.442270133e-015 7.951389973e-016
lhumerus  -4.11427021 -14.42259979 85.63829803
lradius  2.59895905e-031 -2.390450981e-031 137.3930054
lwrist  -3.531125038e-031 -0 4.083869934
lhand  -1.496451383e-031 -27.76390076 20.11240005
lfingers  90 7.125020027 -90
lthumb  89.89689403 5.08795885 91.16245106
rclavicle  0 -9.442270133e-015 7.951389973e-016
rhumerus  -24.94179916 33.05979919 -85.37359619
rradius  -1.509332655e-031 3.192296818e-031 115.3050003
rwrist  0 -3.531125038e-031 0.005197099876
rhand  -7.920061211e-032 -33.2840004 9.303460121
rfingers  -90 -7.125020027 -90
rthumb  -92.93752616 -24.25625642 -97.11982154
rfemur  -9.574839592 14.85760021 2.672420025
rtibia  -0 0 55.90670013
rfoot  -0 -14.4467001 -11.61400032
rtoes  5.373923086 19.29304026 -105.8922705
lfemur  -28.48290062 6.690060139 -4.510950089
ltibia  -0 0 65.95739746
lfoot  -0 -0.5299640298 -14.43710041
ltoes  -4.250644065 -19.5611806 -102.515957
113
root  5.348199934 38.38355598 -0.1494866657 -4.539993286 -70.39399719 7.227996826
lowerback  14.44779968 2.584520102 0.9557639956
upperback  4.193490028 3.397170067 -0.05038750172
thorax  -3.59581995 1.616729975 -1.170469999
lowerneck  -2.948499918 7.550370216 -2.745729923
upperneck  3.872800112 10.3743 -4.424389839
head  1.809270024 5.023829937 -0.6688899994
lclavicle  0 -9.442270133e-015 7.951389973e-016
lhumerus  -4.347410202 -14.66139984 84.83640289
lradius  2.628215938e-031 -2.358246174e-031 138.098999
lwrist  -1.059337512e-030 -0 3.873759985
lhand  -1.496451383e-031 -27.76390076 20.11240005
lfingers  90 7.125020027 -90
lthumb  89.89689403 5.08795885 91.16245106
rclavicle  0 -9.442270133e-015 7.951389973e-016
rhumerus  -25.6189003 32.7798996 -85.86229706
rradius  -1.461136413e-031 3.214642191e-031 114.4430008
rwrist  3.531125038e-031 -3.531125038e-031 0.9332029819
rhand  -7.920061211e-032 -33.2840004 9.303460121
rfingers  -90 -7.125020027 -90
rthumb  -92.93752616 -24.25625642 -97.11982154
rfemur  -10.21010017 15.87390041 1.946609974
rtibia  -0 0 56.20029831
rfoot  -0 -11.98950005 -10.4307003
rtoes  5.373923086 19.29304026 -105.8922705
lfemur  -28.08650017 6.709010124 -4.571000099
ltibia  -0 0 65.54000092
lfoot  -0 3.215879917 -15.18809986
ltoes  -4.250644065 -19.5611806 -102.515957
114
root  5.297644307 38.5864438 0.02363155501 -5.774993896 -71.20800018 8.257003784
lowerback  14.41969967 2.493799925 1.018939972
upperback  4.346280098 3.281260014 0.0285478998
thorax  -3.424020052 1.558570027 -1.097830057
lowerneck  -3.260010004 7.872280121 -2.788870096
upperneck  3.88586998 10.8362999 -4.742050171
head  1.891170025 5.240180016 -0.7335249782
lclavicle  0 -9.442270133e-015 7.951389973e-016
lhumerus  -4.569439888 -14.19480038 84.2201004
lradius  2.661210046e-031 -2.320949187e-031 138.9069977
lwrist  -7.062250077e-031 -3.531125038e-031 3.547250032
lhand  -1.496451383e-031 -27.76390076 20.11240005
lfingers  90 7.125020027 -90
lthumb  89.89689403 5.08795885 91.16245106
rclavicle  0 -9.442270133e-015 7.951389973e-016
rhumerus  -25.7737999 33.24250031 -85.8871994
rradius  -1.419722913e-031 3.233145664e-031 113.7070007
rwrist  7.062250077e-031 -3.531125038e-031 1.334429979
rhand  -7.920061211e-032 -33.2840004 9.303460121
rfingers  -90 -7.125020027 -90
rthumb  -92.93752616 -24.25625642 -97.11982154
rfemur  -10.93589973 16.89170074 1.289790034
rtibia  -0 0 56.58570099
rfoot  -0 -10.3142004 -9.405119896
rtoes  5.373923086 19.29304026 -105.8922705
lfemur  -27.77529907 6.640029907 -4.542490005
ltibia  -0 0 65.11959839
lfoot  -0 6.68859005 -16.16110039
ltoes  -4.250644065 -19.5611806 -102.515957
115
root  5.247711197 38.76888846 0.18622867 -6.906005859 -71.91999817 9.248001099
lowerback  14.36499977 2.373219967 0.9587060213
upperback  4.502409935 3.112669945 0.2165450007
thorax  -3.248719931 1.473739982 -0.8326969743
lowerneck  -3.714639902 8.201120377 -3.064559937
upperneck  3.885710001 11.32250023 -4.973010063
head  1.97566998 5.464580059 -0.7271829844
lclavicle  0 -9.442270133e-015 7.951389973e-016
lhumerus  -4.765510082 -13.80490017 83.69920349
lradius  2.691681312e-031 -2.285540581e-031 139.6649933
lwrist  -3.531125038e-031 -3.531125038e-031 2.58949995
lhand  -1.496451383e-031 -27.76390076 20.11240005
lfingers  90 7.125020027 -90
lthumb  89.89689403 5.08795885 91.16245106
rclavicle  0 -9.442270133e-015 7.951389973e-016
rhumerus  -25.84770012 33.75310135 -85.63179779
rradius  -1.392700488e-031 3.244877407e-031 113.2289963
rwrist  3.531125038e-031 -3.531125038e-031 1.353880048
rhand  -7.920061211e-032 -33.2840004 9.303460121
rfingers  -90 -7.125020027 -90
rthumb  -92.93752616 -24.25625642 -97.11982154
rfemur  -11.76539993 17.75239944 0.6979979873
rtibia  -0 0 57.03900146
rfoot  -0 -9.112409592 -8.432209969
rtoes  5.373923086 19.29304026 -105.8922705
lfemur  -27.58989906 6.464240074 -4.41960001
ltibia  -0 0 64.70230103
lfoot  -0 9.86868 -17.29850006
ltoes  -4.250644065 -19.5611806 -102.515957
